<svg version="1.1" id="Layer_1" xmlns="http://www.w3.org/2000/svg" xmlns:xlink="http://www.w3.org/1999/xlink" x="0px" y="0px"
	 width="100%" viewBox="0 0 546 495" enable-background="new 0 0 546 495" xml:space="preserve">
<path fill="#EDECEA" opacity="1.000000" stroke="none" 
	d="
M322.000000,496.000000 
	C214.692307,496.000000 107.884605,496.000000 1.038455,496.000000 
	C1.038455,331.065247 1.038455,166.130463 1.038455,1.097847 
	C182.891052,1.097847 364.782166,1.097847 546.836670,1.097847 
	C546.836670,165.999863 546.836670,330.999908 546.836670,496.000000 
	C472.130402,496.000000 397.315216,496.000000 322.000000,496.000000 
M211.127838,335.033783 
	C208.854706,335.356232 206.581802,335.958313 204.308395,335.960266 
	C144.978882,336.011841 85.649315,336.001129 26.319761,336.001129 
	C24.573479,336.001129 22.827196,336.001160 21.358719,336.001160 
	C21.358719,344.302399 21.358719,351.881256 21.358719,359.616730 
	C72.857414,359.616730 123.998901,359.616730 175.197922,360.363525 
	C170.432068,367.078217 164.372681,370.473145 155.752930,369.216797 
	C150.858871,368.503479 145.775635,369.087952 140.777603,369.087952 
	C132.998886,369.087952 125.220154,369.087952 117.342117,369.087952 
	C117.342117,399.515717 117.342117,429.371704 117.342117,459.209656 
	C118.205360,459.313202 118.699615,459.424408 119.193886,459.424469 
	C214.822952,459.437866 310.452026,459.453705 406.081024,459.372009 
	C407.909943,459.370453 410.119324,458.677643 411.510651,457.530457 
	C449.362549,426.321503 487.165985,395.053528 524.889221,363.689148 
	C534.845947,355.410797 536.178406,342.664978 528.476074,333.131866 
	C521.329163,324.286194 507.624146,323.286652 498.017212,331.103271 
	C472.740021,351.669983 447.580261,372.381775 422.204193,392.825287 
	C419.860077,394.713745 416.313293,396.014771 413.310974,396.041870 
	C380.493530,396.338379 347.673309,396.330811 314.853790,396.387360 
	C313.192871,396.390228 311.510620,396.361359 309.874451,396.110962 
	C304.069275,395.222443 299.981171,391.256836 298.732513,385.452698 
	C297.573273,380.064514 299.901550,373.824585 304.858826,371.317596 
	C307.693329,369.884125 311.200623,369.222321 314.414825,369.190002 
	C333.738647,368.995697 353.066254,369.197418 372.390594,369.031708 
	C382.266083,368.946991 389.872192,363.127075 392.664246,354.158508 
	C395.273193,345.778107 392.308472,336.132416 384.395050,331.484772 
	C380.352142,329.110321 375.048218,327.885284 370.304169,327.857452 
	C325.323334,327.593781 280.340271,327.751678 235.358139,327.652985 
	C226.717392,327.634033 219.181198,330.617126 211.127838,335.033783 
M122.252869,42.824013 
	C97.822678,53.233593 73.400269,63.661488 48.955914,74.037689 
	C43.920933,76.174950 41.383255,80.155533 41.279018,85.309517 
	C41.033173,97.465317 40.967930,109.634796 41.268131,121.787918 
	C41.453232,129.281128 45.868904,133.206512 53.361496,133.499084 
	C55.950008,133.600159 58.545788,133.515152 61.169010,133.515152 
	C61.169010,185.433777 61.169010,236.632660 61.169010,288.269836 
	C54.444645,288.269836 48.020695,288.269836 41.484501,288.269836 
	C41.484501,296.429565 41.484501,304.146851 41.484501,311.727478 
	C122.680664,311.727478 203.549438,311.727478 284.442200,311.727478 
	C284.442200,303.784515 284.442200,296.196533 284.442200,288.069946 
	C277.625763,288.069946 271.063049,288.069946 264.496216,288.069946 
	C264.496216,236.314209 264.496216,185.102325 264.496216,133.519333 
	C267.118927,133.519333 269.435455,133.556808 271.750427,133.512619 
	C280.254974,133.350342 284.429230,129.602127 284.633087,121.054634 
	C284.911041,109.399879 284.844055,97.731247 284.648926,86.073181 
	C284.548645,80.083252 281.673004,76.043579 275.787354,73.561195 
	C240.001999,58.468002 204.308365,43.156364 168.642715,27.781681 
	C164.667480,26.068045 161.255798,25.988825 157.260605,27.784281 
	C145.909622,32.885479 134.388565,37.608261 122.252869,42.824013 
M346.417175,167.085266 
	C340.196716,164.348572 333.800110,161.944046 327.812531,158.768295 
	C323.163635,156.302567 321.093811,151.861496 322.165955,146.489563 
	C323.219757,141.209442 326.716675,138.214355 331.818481,136.833862 
	C341.374939,134.247925 350.303284,136.220032 358.845612,140.594208 
	C362.799652,142.618896 366.571259,144.999863 370.732239,147.395905 
	C376.170837,140.031265 381.459412,132.869781 387.296661,124.965317 
	C380.725006,121.255104 374.903717,117.329079 368.573181,114.572319 
	C362.103607,111.755020 355.134430,110.084923 347.940002,107.769760 
	C347.940002,100.560326 347.825928,92.914284 347.989075,85.274155 
	C348.068176,81.571693 346.480804,80.146568 342.935913,80.204155 
	C337.604736,80.290771 332.267578,80.344696 326.939697,80.186081 
	C323.008545,80.069054 321.670044,81.763466 321.795868,85.603127 
	C322.014130,92.261681 321.687042,98.938667 321.926727,105.595741 
	C322.045532,108.895370 321.084412,110.224312 317.829681,111.631790 
	C311.647034,114.305412 305.309113,117.377060 300.221100,121.683838 
	C284.519287,134.974762 282.715271,160.422455 296.877686,174.308472 
	C303.015381,180.326431 310.996277,184.735886 318.701904,188.814224 
	C328.212433,193.847794 338.457214,197.478027 348.090790,202.301620 
	C353.220245,204.869995 355.719421,209.676834 354.569672,215.696915 
	C353.437012,221.627472 349.453094,224.827820 343.865784,226.272293 
	C333.172974,229.036682 322.989105,227.106628 313.339111,222.314362 
	C307.759186,219.543304 302.524628,216.076813 296.807465,212.731903 
	C291.399445,220.207291 286.001831,227.668274 280.527863,235.234848 
	C292.893921,245.413467 306.714661,250.815384 321.851959,254.168564 
	C321.851959,262.271362 321.993500,270.248779 321.790894,278.217407 
	C321.692841,282.074341 323.071350,283.729218 326.972382,283.613251 
	C332.133759,283.459839 337.308105,283.435486 342.467468,283.619293 
	C346.535065,283.764252 348.162933,282.162323 348.059906,278.034088 
	C347.861389,270.079651 348.002045,262.116791 348.002045,254.536148 
	C353.593781,252.603317 358.762726,251.210464 363.601471,249.070908 
	C378.663239,242.410995 387.695312,231.018127 389.065521,214.360168 
	C390.472870,197.251175 383.091705,184.666107 368.051727,176.747696 
	C361.303009,173.194550 354.140930,170.426575 346.417175,167.085266 
z"/>
<path fill="#241916" opacity="1.000000" stroke="none" 
	d="
M211.955383,334.885315 
	C219.181198,330.617126 226.717392,327.634033 235.358139,327.652985 
	C280.340271,327.751678 325.323334,327.593781 370.304169,327.857452 
	C375.048218,327.885284 380.352142,329.110321 384.395050,331.484772 
	C392.308472,336.132416 395.273193,345.778107 392.664246,354.158508 
	C389.872192,363.127075 382.266083,368.946991 372.390594,369.031708 
	C353.066254,369.197418 333.738647,368.995697 314.414825,369.190002 
	C311.200623,369.222321 307.693329,369.884125 304.858826,371.317596 
	C299.901550,373.824585 297.573273,380.064514 298.732513,385.452698 
	C299.981171,391.256836 304.069275,395.222443 309.874451,396.110962 
	C311.510620,396.361359 313.192871,396.390228 314.853790,396.387360 
	C347.673309,396.330811 380.493530,396.338379 413.310974,396.041870 
	C416.313293,396.014771 419.860077,394.713745 422.204193,392.825287 
	C447.580261,372.381775 472.740021,351.669983 498.017212,331.103271 
	C507.624146,323.286652 521.329163,324.286194 528.476074,333.131866 
	C536.178406,342.664978 534.845947,355.410797 524.889221,363.689148 
	C487.165985,395.053528 449.362549,426.321503 411.510651,457.530457 
	C410.119324,458.677643 407.909943,459.370453 406.081024,459.372009 
	C310.452026,459.453705 214.822952,459.437866 119.193886,459.424469 
	C118.699615,459.424408 118.205360,459.313202 117.342117,459.209656 
	C117.342117,429.371704 117.342117,399.515717 117.342117,369.087952 
	C125.220154,369.087952 132.998886,369.087952 140.777603,369.087952 
	C145.775635,369.087952 150.858871,368.503479 155.752930,369.216797 
	C164.372681,370.473145 170.432068,367.078217 175.456467,359.794403 
	C178.007736,359.476349 180.300003,359.941071 182.593231,359.945740 
	C208.067139,359.997711 233.541183,359.978638 259.015198,359.978455 
	C272.834442,359.978363 286.654694,359.885437 300.472168,360.042236 
	C303.934601,360.081543 305.248657,359.023743 305.060760,355.490204 
	C304.813568,350.841461 304.715302,346.146973 305.083099,341.514252 
	C305.434235,337.091461 303.929352,335.865051 299.506348,335.897247 
	C272.202332,336.095886 244.896088,336.019135 217.590805,335.949615 
	C215.711441,335.944824 213.833817,335.256042 211.955383,334.885315 
z"/>
<path fill="#040404" opacity="1.000000" stroke="none" 
	d="
M122.593658,42.652016 
	C134.388565,37.608261 145.909622,32.885479 157.260605,27.784281 
	C161.255798,25.988825 164.667480,26.068045 168.642715,27.781681 
	C204.308365,43.156364 240.001999,58.468002 275.787354,73.561195 
	C281.673004,76.043579 284.548645,80.083252 284.648926,86.073181 
	C284.844055,97.731247 284.911041,109.399879 284.633087,121.054634 
	C284.429230,129.602127 280.254974,133.350342 271.750427,133.512619 
	C269.435455,133.556808 267.118927,133.519333 264.496216,133.519333 
	C264.496216,185.102325 264.496216,236.314209 264.496216,288.069946 
	C271.063049,288.069946 277.625763,288.069946 284.442200,288.069946 
	C284.442200,296.196533 284.442200,303.784515 284.442200,311.727478 
	C203.549438,311.727478 122.680664,311.727478 41.484501,311.727478 
	C41.484501,304.146851 41.484501,296.429565 41.484501,288.269836 
	C48.020695,288.269836 54.444645,288.269836 61.169010,288.269836 
	C61.169010,236.632660 61.169010,185.433777 61.169010,133.515152 
	C58.545788,133.515152 55.950008,133.600159 53.361496,133.499084 
	C45.868904,133.206512 41.453232,129.281128 41.268131,121.787918 
	C40.967930,109.634796 41.033173,97.465317 41.279018,85.309517 
	C41.383255,80.155533 43.920933,76.174950 48.955914,74.037689 
	C73.400269,63.661488 97.822678,53.233593 122.593658,42.652016 
M186.619843,60.864285 
	C179.758041,57.914730 172.952850,54.819435 165.995087,52.116943 
	C164.230988,51.431744 161.710602,51.357777 159.994354,52.083225 
	C128.361374,65.454262 96.788971,78.969032 65.247780,92.555611 
	C63.794411,93.181648 61.812489,94.670357 61.689030,95.916954 
	C61.253082,100.318947 61.519356,104.790466 61.519356,109.438423 
	C129.314835,109.438423 196.517319,109.438423 264.164185,109.438423 
	C264.164185,105.393669 263.940704,101.580879 264.234406,97.808350 
	C264.472229,94.753975 263.205841,93.522316 260.515533,92.385231 
	C236.083221,82.058731 211.720963,71.566582 186.619843,60.864285 
M81.940338,179.499985 
	C81.940338,215.577805 81.940338,251.655624 81.940338,287.870300 
	C95.574944,287.870300 108.782242,287.870300 122.041321,287.870300 
	C122.041321,236.391113 122.041321,185.196091 122.041321,133.824677 
	C108.612633,133.824677 95.430565,133.824677 81.940338,133.824677 
	C81.940338,148.916306 81.940338,163.708130 81.940338,179.499985 
M183.155380,177.500061 
	C183.155380,162.901627 183.155380,148.303207 183.155380,133.749817 
	C169.425705,133.749817 156.324615,133.749817 143.064301,133.749817 
	C143.064301,185.294617 143.064301,236.612045 143.064301,287.775208 
	C156.627991,287.775208 169.841187,287.775208 183.155380,287.775208 
	C183.155380,251.097626 183.155380,214.798859 183.155380,177.500061 
M203.523056,268.499512 
	C203.523056,274.930267 203.523056,281.360992 203.523056,287.863525 
	C217.287521,287.863525 230.502457,287.863525 243.773682,287.863525 
	C243.773682,236.337662 243.773682,185.102707 243.773682,133.860687 
	C230.338394,133.860687 217.123077,133.860687 203.522995,133.860687 
	C203.522995,178.631317 203.522995,223.065475 203.523056,268.499512 
z"/>
<path fill="#261B18" opacity="1.000000" stroke="none" 
	d="
M346.791809,167.193787 
	C354.140930,170.426575 361.303009,173.194550 368.051727,176.747696 
	C383.091705,184.666107 390.472870,197.251175 389.065521,214.360168 
	C387.695312,231.018127 378.663239,242.410995 363.601471,249.070908 
	C358.762726,251.210464 353.593781,252.603317 348.002045,254.536148 
	C348.002045,262.116791 347.861389,270.079651 348.059906,278.034088 
	C348.162933,282.162323 346.535065,283.764252 342.467468,283.619293 
	C337.308105,283.435486 332.133759,283.459839 326.972382,283.613251 
	C323.071350,283.729218 321.692841,282.074341 321.790894,278.217407 
	C321.993500,270.248779 321.851959,262.271362 321.851959,254.168564 
	C306.714661,250.815384 292.893921,245.413467 280.527863,235.234848 
	C286.001831,227.668274 291.399445,220.207291 296.807465,212.731903 
	C302.524628,216.076813 307.759186,219.543304 313.339111,222.314362 
	C322.989105,227.106628 333.172974,229.036682 343.865784,226.272293 
	C349.453094,224.827820 353.437012,221.627472 354.569672,215.696915 
	C355.719421,209.676834 353.220245,204.869995 348.090790,202.301620 
	C338.457214,197.478027 328.212433,193.847794 318.701904,188.814224 
	C310.996277,184.735886 303.015381,180.326431 296.877686,174.308472 
	C282.715271,160.422455 284.519287,134.974762 300.221100,121.683838 
	C305.309113,117.377060 311.647034,114.305412 317.829681,111.631790 
	C321.084412,110.224312 322.045532,108.895370 321.926727,105.595741 
	C321.687042,98.938667 322.014130,92.261681 321.795868,85.603127 
	C321.670044,81.763466 323.008545,80.069054 326.939697,80.186081 
	C332.267578,80.344696 337.604736,80.290771 342.935913,80.204155 
	C346.480804,80.146568 348.068176,81.571693 347.989075,85.274155 
	C347.825928,92.914284 347.940002,100.560326 347.940002,107.769760 
	C355.134430,110.084923 362.103607,111.755020 368.573181,114.572319 
	C374.903717,117.329079 380.725006,121.255104 387.296661,124.965317 
	C381.459412,132.869781 376.170837,140.031265 370.732239,147.395905 
	C366.571259,144.999863 362.799652,142.618896 358.845612,140.594208 
	C350.303284,136.220032 341.374939,134.247925 331.818481,136.833862 
	C326.716675,138.214355 323.219757,141.209442 322.165955,146.489563 
	C321.093811,151.861496 323.163635,156.302567 327.812531,158.768295 
	C333.800110,161.944046 340.196716,164.348572 346.791809,167.193787 
z"/>
<path fill="#000000" opacity="1.000000" stroke="none" 
	d="
M211.541611,334.959534 
	C213.833817,335.256042 215.711441,335.944824 217.590805,335.949615 
	C244.896088,336.019135 272.202332,336.095886 299.506348,335.897247 
	C303.929352,335.865051 305.434235,337.091461 305.083099,341.514252 
	C304.715302,346.146973 304.813568,350.841461 305.060760,355.490204 
	C305.248657,359.023743 303.934601,360.081543 300.472168,360.042236 
	C286.654694,359.885437 272.834442,359.978363 259.015198,359.978455 
	C233.541183,359.978638 208.067139,359.997711 182.593231,359.945740 
	C180.300003,359.941071 178.007736,359.476349 175.427704,359.421021 
	C123.998901,359.616730 72.857414,359.616730 21.358719,359.616730 
	C21.358719,351.881256 21.358719,344.302399 21.358719,336.001160 
	C22.827196,336.001160 24.573479,336.001129 26.319761,336.001129 
	C85.649315,336.001129 144.978882,336.011841 204.308395,335.960266 
	C206.581802,335.958313 208.854706,335.356232 211.541611,334.959534 
z"/>
<path fill="#EBEAE8" opacity="1.000000" stroke="none" 
	d="
M186.979019,60.993591 
	C211.720963,71.566582 236.083221,82.058731 260.515533,92.385231 
	C263.205841,93.522316 264.472229,94.753975 264.234406,97.808350 
	C263.940704,101.580879 264.164185,105.393669 264.164185,109.438423 
	C196.517319,109.438423 129.314835,109.438423 61.519356,109.438423 
	C61.519356,104.790466 61.253082,100.318947 61.689030,95.916954 
	C61.812489,94.670357 63.794411,93.181648 65.247780,92.555611 
	C96.788971,78.969032 128.361374,65.454262 159.994354,52.083225 
	C161.710602,51.357777 164.230988,51.431744 165.995087,52.116943 
	C172.952850,54.819435 179.758041,57.914730 186.979019,60.993591 
z"/>
<path fill="#EEEDEB" opacity="1.000000" stroke="none" 
	d="
M81.940338,178.999969 
	C81.940338,163.708130 81.940338,148.916306 81.940338,133.824677 
	C95.430565,133.824677 108.612633,133.824677 122.041321,133.824677 
	C122.041321,185.196091 122.041321,236.391113 122.041321,287.870300 
	C108.782242,287.870300 95.574944,287.870300 81.940338,287.870300 
	C81.940338,251.655624 81.940338,215.577805 81.940338,178.999969 
z"/>
<path fill="#EEEDEB" opacity="1.000000" stroke="none" 
	d="
M183.155380,178.000076 
	C183.155380,214.798859 183.155380,251.097626 183.155380,287.775208 
	C169.841187,287.775208 156.627991,287.775208 143.064301,287.775208 
	C143.064301,236.612045 143.064301,185.294617 143.064301,133.749817 
	C156.324615,133.749817 169.425705,133.749817 183.155380,133.749817 
	C183.155380,148.303207 183.155380,162.901627 183.155380,178.000076 
z"/>
<path fill="#EEEDEB" opacity="1.000000" stroke="none" 
	d="
M203.523026,267.999573 
	C203.522995,223.065475 203.522995,178.631317 203.522995,133.860687 
	C217.123077,133.860687 230.338394,133.860687 243.773682,133.860687 
	C243.773682,185.102707 243.773682,236.337662 243.773682,287.863525 
	C230.502457,287.863525 217.287521,287.863525 203.523056,287.863525 
	C203.523056,281.360992 203.523056,274.930267 203.523026,267.999573 
z"/>
</svg>