<svg class="svg-icon" style="width: 1em; height: 1em;vertical-align: middle; fill: #000;overflow: hidden;" viewBox="0 0 1024 1024" version="1.1" xmlns="http://www.w3.org/2000/svg"><path d="M661 84v860H84V84h577m29.3-80H54.7C26.7 4 4 30.9 4 64v900c0 33.1 22.7 60 50.7 60h635.6c28 0 50.7-26.9 50.7-60V64c0-33.1-22.7-60-50.7-60z"  /><path d="M505 742v201H240V742h265m61-80H178.1c-16.8 0-18.1 9.5-18.1 21.2v318.5c0 11.7 1.4 21.2 18.1 21.2H566c16.8 0 19-9.5 19-21.2V683.2c0-11.7-2.2-21.2-19-21.2z m376-267v548H742.1V395H942m63.9-80H677.5c-14.2 0-15.3 18.6-15.3 41.6v624.7c0 23 1.1 41.6 15.3 41.6h328.4c14.2 0 16.1-18.6 16.1-41.6V356.6c0-23-1.9-41.6-16.1-41.6zM291 223H185c-22.1 0-40-17.9-40-40s17.9-40 40-40h106c22.1 0 40 17.9 40 40s-17.9 40-40 40z m270 0H455c-22.1 0-40-17.9-40-40s17.9-40 40-40h106c22.1 0 40 17.9 40 40s-17.9 40-40 40zM291 380H185c-22.1 0-40-17.9-40-40s17.9-40 40-40h106c22.1 0 40 17.9 40 40s-17.9 40-40 40z m270 0H455c-22.1 0-40-17.9-40-40s17.9-40 40-40h106c22.1 0 40 17.9 40 40s-17.9 40-40 40zM291 537H185c-22.1 0-40-17.9-40-40s17.9-40 40-40h106c22.1 0 40 17.9 40 40s-17.9 40-40 40z m270 0H455c-22.1 0-40-17.9-40-40s17.9-40 40-40h106c22.1 0 40 17.9 40 40s-17.9 40-40 40z"  /><path d="M766 557h-39.7c-22.1 0-40-17.9-40-40s17.9-40 40-40H766c22.1 0 40 17.9 40 40s-17.9 40-40 40z m0 179h-43c-22.1 0-40-17.9-40-40s17.9-40 40-40h43c22.1 0 40 17.9 40 40s-17.9 40-40 40z m0 179h-36.4c-22.1 0-40-17.9-40-40s17.9-40 40-40H766c22.1 0 40 17.9 40 40s-17.9 40-40 40z"  /></svg>